<?xml version="1.0" encoding="UTF-8" standalone="no"?>
<svg
   version="1.1"
   viewBox="0 0 1496.921 1728.5469"
   id="svg108"
   sodipodi:docname="ggquiver.svg"
   inkscape:version="1.4.2 (1:1.4.2+202505120737+ebf0e940d0)"
   width="1496.921"
   height="1728.5469"
   inkscape:export-filename="ggquiver.png"
   inkscape:export-xdpi="39.248562"
   inkscape:export-ydpi="39.248562"
   xmlns:inkscape="http://www.inkscape.org/namespaces/inkscape"
   xmlns:sodipodi="http://sodipodi.sourceforge.net/DTD/sodipodi-0.dtd"
   xmlns="http://www.w3.org/2000/svg"
   xmlns:svg="http://www.w3.org/2000/svg">
  <defs
     id="defs108">
    <linearGradient
       id="gradient_1_"
       gradientUnits="userSpaceOnUse"
       x1="305.6709"
       y1="404.72559"
       x2="305.6709"
       y2="134.4175"
       gradientTransform="matrix(2.4466131,0,0,2.4466131,1285.4966,-1584.013)">
      <stop
         offset="0"
         style="stop-color:#FFFFFF;stop-opacity:0"
         id="stop1" />
      <stop
         offset="1"
         style="stop-color:#FFFFFF"
         id="stop2" />
    </linearGradient>
  </defs>
  <sodipodi:namedview
     id="namedview108"
     pagecolor="#ffffff"
     bordercolor="#000000"
     borderopacity="0.25"
     inkscape:showpageshadow="2"
     inkscape:pageopacity="0.0"
     inkscape:pagecheckerboard="0"
     inkscape:deskcolor="#d1d1d1"
     inkscape:zoom="0.28415797"
     inkscape:cx="536.67332"
     inkscape:cy="980.08865"
     inkscape:window-width="1870"
     inkscape:window-height="1052"
     inkscape:window-x="0"
     inkscape:window-y="0"
     inkscape:window-maximized="1"
     inkscape:current-layer="svg108" />
  <g
     id="g111"
     style="display:inline"
     transform="translate(-1285.6997,1285.2252)">
    <polygon
       id="fill"
       fill="#e1f0fb"
       points="306,42.123 611.917,218.728 611.917,572.024 306,748.629 0.083,572.021 0.083,218.728 "
       transform="matrix(2.4466131,0,0,2.4466131,1285.4966,-1388.2839)"
       style="fill:#fcbe00;fill-opacity:1" />
    <path
       fill="#e55c53"
       d="M 56.464831,975.65779 43.950931,453.86365 747.52283,54.534716 1066.8983,245.26612 c 0,0 -100.45667,94.03706 -160.79537,125.27463 -95.9404,49.66871 -212.4472,47.86794 -310.2397,93.78285 -164.9368,77.44013 -209.5197,233.96983 -294.8273,336.61834 C 236.99963,877.9952 56.464831,975.65779 56.464831,975.65779 Z"
       id="path16"
       style="fill:#6099aa;fill-opacity:1;stroke-width:1.87791"
       inkscape:label="water"
       sodipodi:nodetypes="ccccassc"
       transform="translate(1285.6997,-1285.2252)" />
  </g>
  <path
     id="path50"
     d="m 243.57933,994.85588 a 1.8215683,1.8215683 0 0 0 0.1127,-2.49762 l -5.4835,-6.21586 a 3.7558109,3.7558109 0 0 1 1.0328,-5.78395 q 14.6853,-7.92476 35.192,-12.82609 5.5774,-1.33332 9.0514,2.17836 c 4.2818,4.33797 0.8077,10.92941 -1.6149,16.95748 q -4.7322,11.68058 -11.211,22.1405 a 5.8778441,5.8778441 0 0 1 -6.2722,2.6479 l -4.3756,-0.9766 a 5.8215069,5.8027279 30.5 0 0 -5.0515,1.2958 c -6.7793,5.9342 -19.474,19.3236 -26.0842,6.291 q -2.1595,-4.2629 2.0094,-9.5585 4.4319,-5.6338 12.6946,-13.65242 z m 179.8095,-16.45045 a 1.38965,1.38965 0 0 0 0,-1.95302 l -7.2863,-7.2675 a 3.117323,3.098544 52.3 0 1 0.6197,-4.86378 q 11.1548,-6.59144 29.1451,-15.99974 9.1455,-4.78867 17.3519,-6.23465 a 3.8684852,4.8825541 77.4 0 1 5.2769,2.55396 q 0.4507,1.4272 -0.3004,4.45063 -5.2957,21.7837 -10.291,43.19182 -0.9765,4.16895 -2.2347,7.02337 a 2.8168582,2.8168582 0 0 1 -4.582,0.86388 l -9.6525,-9.65248 a 1.4647663,1.4647663 0 0 0 -2.1032,0.0187 c -6.4976,6.87313 -26.2344,29.44558 -34.6849,27.90568 -9.5775,-1.7465 -6.4413,-10.6665 -2.122,-16.3002 q 9.0889,-11.88717 20.8634,-23.73676 z m 180.2977,-15.24859 a 1.7840102,1.7840102 0 0 0 0.074,-2.44128 l -9.1265,-10.34725 a 2.3849399,2.3849399 0 0 1 0.338,-3.47414 q 1.1266,-0.86384 2.4599,-1.44598 6.2346,-2.72297 39.8117,-15.94343 4.9576,-1.953 9.4082,-2.04691 a 3.3802298,3.3802298 0 0 1 3.3428,4.20651 l -12.8262,51.77386 a 3.6055784,3.6055784 0 0 1 -6.0469,1.69012 l -10.3847,-10.36605 a 1.6525567,1.6525567 0 0 0 -2.3661,0.0187 q -4.0564,4.2253 -33.7836,34.79761 -5.3897,5.5398 -7.2675,6.46 c -6.3097,3.0609 -12.3191,0.038 -12.1876,-7.2675 0.1315,-8.3004 9.2393,-16.45048 16.751,-23.94331 q 5.9717,-5.93418 21.8025,-21.67103 z m 184.1099,-17.97156 a 1.5962196,1.5962196 0 0 0 0,-2.25349 l -11.906,-11.90591 a 2.5351724,2.5351724 0 0 1 0.9766,-4.18774 q 19.1733,-6.51633 44.5815,-14.68522 5.1267,-1.63377 11.4365,-2.12202 a 2.7605211,2.7793 87.8 0 1 2.9858,2.76052 q -0.019,3.90604 -0.9577,7.26749 -8.9201,31.54881 -12.0937,42.81624 -0.6762,2.40372 -2.0658,5.85907 a 3.2299974,3.2299974 0 0 1 -5.4271,0.93895 l -10.3472,-11.73691 a 1.4647663,1.4835452 48.9 0 0 -2.0657,-0.13146 q -2.1409,1.85913 -4.4131,4.20651 -26.0466,26.94795 -50.3466,52.01799 -5.615,5.7839 -11.1924,5.9154 c -11.3614,0.2629 -9.5962,-10.8919 -4.8825,-17.3706 q 5.1642,-7.09852 21.9902,-23.96211 1.3521,-1.35209 33.7272,-33.42671 z m 169.6688,-16.76969 a 2.422498,2.422498 0 0 1 0.057,-3.51169 q 1.3145,-1.22064 6.9295,-3.06098 22.6851,-7.43651 43.52967,-13.7275 c 4.1502,-1.25818 16.3378,-4.52575 12.9013,5.48349 q -9.2581,27.02306 -16.6758,50.77856 -0.9766,3.13611 -1.8029,4.28163 a 2.5915096,2.6102886 37.9 0 1 -4.03747,0.50703 l -11.4739,-11.24866 a 2.2534865,2.2722656 50.4 0 0 -2.8544,-0.2629 q -2.216,1.50233 -3.5305,2.79808 -54.3655,54.74095 -56.0367,56.16815 -6.3661,5.4459 -12.413,4.169 -7.6806,-1.5963 -6.3848,-9.8027 c 0.7136,-4.5258 4.7323,-9.5586 8.4692,-13.22046 q 26.3659,-25.80243 55.1918,-55.24798 a 1.7088939,1.7088939 0 0 0 -0.019,-2.42251 z m 375.78757,7.17358 a 0.99528989,1.0140689 39.4 0 0 -0.1126,-1.27697 l -13.9153,-13.91528 a 1.9530217,1.9530217 0 0 1 0.094,-2.85441 q 2.0844,-1.84034 3.6994,-2.36617 7.6807,-2.4976 49.1824,-15.09835 6.6478,-2.00937 13.2204,-2.14082 a 2.4600561,2.4412771 1.8 0 1 2.4976,2.64785 q -0.2065,2.64785 -0.9014,4.92012 -1.3145,4.24407 -14.9481,53.97101 -0.3755,1.38964 -1.8779,4.31917 a 2.6478467,2.6478467 0 0 1 -3.4553,1.18308 q -2.7981,-1.29575 -5.1643,-4.35674 -5.014,-6.45999 -9.0702,-10.53504 a 1.8215683,1.8027893 45.2 0 0 -2.554,-0.0187 q -36.2812,35.83044 -63.5482,63.22908 c -5.5774,5.6337 -16.0186,18.4222 -25.7274,11.8308 -12.7323,-8.6008 5.0328,-23.5865 11.4928,-29.82114 q 8.7323,-8.43179 57.9521,-56.13059 2.1032,-2.02813 3.1361,-3.5868 z m -180.1474,0.45072 a 1.5023244,1.5023244 0 0 0 -0.074,-2.19715 q -7.4553,-6.47878 -12.3567,-14.10308 a 2.8544163,2.8544163 0 0 1 1.0517,-4.05627 q 3.9999,-2.17837 9.8402,-3.86849 26.1592,-7.56795 42.5909,-12.35662 3.9247,-1.14551 9.4834,-1.22063 a 3.3426717,3.3238926 6.8 0 1 3.2863,4.16895 q -7.7182,29.44554 -16.9574,59.07889 -0.601,1.91547 -1.2018,2.61029 a 3.0046487,3.0234278 43 0 1 -4.6574,0.16901 l -13.1452,-14.91056 a 1.032848,1.032848 0 0 0 -1.5212,-0.0376 q -29.1638,30.51597 -71.135,71.64207 -5.2582,5.1455 -11.9435,4.3943 c -6.6664,-0.7699 -10.1032,-6.8168 -8.0562,-12.7134 1.7277,-4.9952 7.136,-10.6665 11.2111,-14.53499 q 38.8351,-36.91962 63.5859,-62.06477 z M 438.43093,826.70823 a 0.90139463,0.90139463 0 0 0 -1.2771,0.11263 q -12.0936,14.32841 -26.6286,26.87282 c -5.3708,4.63843 -14.4974,1.22063 -14.4035,-6.68534 0.074,-7.32383 17.5396,-24.26254 23.8493,-30.3094 a 2.1971493,2.1971493 0 0 0 -0.093,-3.26755 c -4.7323,-3.98116 -13.2769,-9.63365 -3.7934,-14.87302 q 21.0889,-11.643 35.4548,-18.72272 6.5916,-3.24878 12.7886,-4.13138 a 3.5116832,3.5304623 2.3 0 1 3.9249,4.26283 l -12.0938,54.68461 a 3.6243576,3.5680204 67.2 0 1 -0.4883,1.22065 q -0.2628,0.43192 -0.3004,0.46947 a 3.2112183,3.2299974 37.9 0 1 -4.6761,0.58216 z m 167.4527,-38.51585 a 2.5163932,2.5351724 43.6 0 0 -0.074,-3.47412 l -9.6149,-9.61487 a 3.5492412,3.5304623 56.8 0 1 1.2019,-5.80274 q 25.5583,-10.02802 55.6423,-17.63352 a 3.3614508,3.3614508 0 0 1 4.169,2.89198 q 0.3193,2.77929 -0.7136,5.8215 -7.8684,23.3987 -14.366,47.58612 -0.6761,2.57273 -1.7277,3.96239 a 3.4741251,3.4741251 0 0 1 -5.2957,0.48825 l -11.2298,-11.19232 a 0.99528989,1.0140689 44.6 0 0 -1.4273,0.0187 q -21.5959,22.40342 -41.99,41.78339 c -3.7557,3.56803 -10.5162,7.71819 -15.2109,4.82622 -8.3003,-5.1079 -0.3945,-16.13121 4.2065,-20.99498 q 30.6849,-32.29997 36.4314,-38.66607 z m 185.0113,-17.40819 a 0.97651084,0.97651084 0 0 0 0.019,-1.38963 l -13.3144,-13.55849 a 2.4600561,2.4600561 0 0 1 0.6198,-3.90604 q 1.4272,-0.75117 7.2486,-2.44127 24.1499,-7.0046 49.314,-14.12186 4.3943,-1.23941 7.8872,-0.54459 a 3.1924393,3.1924393 0 0 1 2.5727,3.34268 q -0.2817,4.09383 -1.5586,8.07499 -12.5257,39.436 -15.3989,47.88658 -1.5211,4.45064 -3.8123,7.15483 a 2.7605211,2.7605211 0 0 1 -4.1876,0.0375 l -12.0186,-13.63359 a 1.8027893,1.8027893 0 0 0 -2.6479,-0.0563 q -28.0934,29.03242 -59.7737,60.16809 -5.6901,5.57737 -12.3378,5.52105 c -8.4694,-0.0752 -12.0938,-8.09378 -8.2254,-15.22982 q 2.7419,-5.05156 11.0985,-13.33313 25.408,-25.18271 54.5157,-53.97101 z m 197.5557,16.97628 q -1.5211,0.82627 -2.8544,2.17837 -39.9055,40.67542 -59.492,59.22913 -6.1032,5.78396 -13.7464,5.59616 c -6.3848,-0.15023 -10.366,-6.7229 -7.9434,-12.50685 1.3521,-3.24878 4.3754,-7.21115 7.1548,-10.02801 q 30.2718,-30.72254 61.2572,-60.88171 a 1.6337778,1.6337778 0 0 0 -0.057,-2.38492 c -3.3802,-3.06099 -17.9152,-15.15471 -8.7698,-18.10302 q 25.2202,-8.1501 54.21517,-15.56783 3.1361,-0.8075 7.0233,-0.93895 a 2.5727304,2.5727304 0 0 1 2.6478,2.47884 q 0.1315,3.99993 -1.2769,8.26277 -8.413,25.2766 -15.9434,47.84904 -2.1785,6.55388 -4.6948,10.32848 a 2.3473818,2.3473818 0 0 1 -3.7933,0.13145 l -11.99977,-15.28615 a 1.3520919,1.3520919 0 0 0 -1.7277,-0.3568 z m 334.19207,-37.22009 a 3.117323,3.1361022 61.9 0 1 1.5586,-5.08912 q 43.1543,-11.39889 50.3467,-13.52092 6.2346,-1.84035 11.6242,-2.49762 a 3.7558109,4.2440663 80.1 0 1 4.5258,2.79809 q 0.5071,2.06569 -0.5258,5.57738 -12.0186,40.65664 -17.3706,54.92873 -1.2019,3.21122 -2.4413,4.43185 a 3.0422069,3.0422069 0 0 1 -4.5445,-0.24413 l -11.8309,-14.92935 a 1.5774406,1.5774406 0 0 0 -2.4413,-0.0187 q -5.1829,6.21587 -12.5068,13.53971 -41.9524,41.97118 -47.0978,46.7974 c -5.5398,5.18301 -14.2346,14.47865 -22.1217,13.4458 q -9.6713,-1.27698 -9.8027,-11.88714 -0.057,-3.15488 5.0328,-8.28156 32.3751,-32.60045 69.5951,-67.77362 a 2.5351724,2.5163932 47.5 0 0 0.1503,-3.4929 z m -149.763,31.54881 q -0.8825,-0.22535 -1.4459,0.37558 -38.2718,39.58625 -68.844,67.64216 c -5.1643,4.7511 -14.9295,8.88249 -19.7932,1.59621 q -5.0516,-7.56795 1.8404,-14.91056 c 21.5583,-23.00435 45.2763,-45.10729 70.3463,-69.46373 a 2.1783704,2.1971493 48.8 0 0 0.2065,-2.9483 l -10.7603,-13.7275 a 3.7370319,3.7558109 54.8 0 1 0.9577,-5.48348 q 2.0657,-1.27697 5.8214,-2.27226 23.9997,-6.30977 48.0369,-13.03267 4.8825,-1.37086 7.9248,-1.50232 a 3.7745899,3.7558109 88.6 0 1 3.9435,3.77459 q 0,3.19243 -1.0515,6.72289 -6.5539,21.87761 -16.826,49.74572 -1.6715,4.52576 -4.3005,7.28628 a 2.6290676,2.6290676 0 0 1 -3.5867,0.22534 q -3.9812,-3.24877 -11.7558,-13.5397 -0.2817,-0.37558 -0.7136,-0.48825 z m 173.4058,-155.60324 q -4.3192,3.54923 -7.7181,7.0797 -18.9293,19.60532 -43.267,43.56741 -4.5258,4.46941 -8.6947,7.71818 c -7.0046,5.50227 -18.7979,2.14082 -18.1969,-7.96231 0.3756,-6.29098 10.2158,-15.06081 15.4176,-20.1687 q 35.53,-34.92904 45.5391,-45.1073 a 1.9154635,1.9154635 0 0 0 -0.038,-2.70418 c -6.5537,-6.38488 -10.2908,-9.61487 -12.6757,-14.72278 a 1.9342426,1.9342426 0 0 1 1.2019,-2.66662 q 27.6426,-8.22523 57.7642,-15.73685 3.2864,-0.82629 6.1032,-0.73239 a 2.5351724,2.5163932 2.3 0 1 2.4602,2.64785 q -0.2442,5.4647 -2.0657,11.1172 -9.8215,30.25307 -13.7276,42.64724 -1.5961,5.05157 -2.8357,7.51162 a 3.7558109,3.7558109 0 0 1 -6.1782,0.78872 l -11.6055,-13.16412 a 1.0704061,1.0891852 49.8 0 0 -1.4836,-0.11263 z m -541.58787,4.16895 a 2.5539514,2.5539514 0 0 0 -3.6244,0.0187 q -18.3471,18.9105 -52.6753,52.58135 c -6.8168,6.68534 -19.7931,6.04686 -19.9245,-5.85907 -0.074,-7.92476 13.6148,-20.67573 21.9902,-28.67561 q 20.9574,-20.05603 37.0886,-36.22481 a 1.9530217,1.9530217 0 0 0 0.056,-2.72295 c -4.6197,-4.90133 -11.3425,-9.65244 -13.5959,-14.96691 a 2.7041839,2.6854048 66.7 0 1 1.3708,-3.4929 q 2.4976,-1.14552 6.122,-2.1596 33.6521,-9.42707 46.9477,-12.6383 5.0516,-1.23941 9.2017,-1.48355 a 4.4130778,4.4130778 0 0 1 4.676,4.54454 q -0.1127,3.69947 -1.9155,8.82615 -8.5444,24.31888 -17.8964,52.07433 -0.7512,2.2347 -2.0094,3.09853 a 4.6384264,4.3755197 54.1 0 1 -6.1032,-1.16429 q -6.2909,-8.3379 -9.7087,-11.75568 z m 362.96147,-2.8732 a 0.84505745,0.86383651 46.6 0 0 -1.2582,-0.0187 q -28.8446,29.55822 -54.3466,54.85361 c -3.7182,3.69947 -8.1313,7.28626 -13.2017,6.49755 q -6.2909,-0.99529 -8.7321,-5.99052 c -3.1174,-6.32853 1.8965,-12.84487 6.535,-17.46452 q 11.8497,-11.81202 54.5344,-54.21513 a 1.5398824,1.5398824 0 0 0 0.056,-2.10326 l -11.6056,-13.18289 a 2.8168582,2.8168582 0 0 1 -0.2064,-3.47413 q 1.2206,-1.80278 4.3004,-2.76051 9.1078,-2.83564 49.8396,-13.53971 6.1595,-1.61499 10.2345,-2.10325 a 2.6102886,2.6102886 0 0 1 2.9109,2.57273 q 0.056,4.37553 -1.4085,8.39424 -3.4366,9.38953 -16.0185,45.93357 -2.0846,6.06563 -4.432,9.63365 a 3.3802298,3.3802298 0 0 1 -5.3707,0.39436 z m -543.07147,1.01407 a 1.3333128,1.3520919 46.9 0 0 -1.953,-0.0563 c -26.2532,26.36579 -39.6801,40.88199 -52.6376,52.18698 -4.939,4.30041 -13.9905,7.19239 -18.3848,0.5446 -4.4694,-6.77924 -0.6009,-12.71342 5.0703,-18.40348 q 29.3893,-29.46433 51.7739,-51.30437 a 1.6337778,1.6337778 0 0 0 0.019,-2.30983 l -12.2439,-12.35661 a 4.0562758,4.0750548 44.1 0 1 -0.074,-5.65249 q 0.9013,-0.93896 4.1876,-1.8028 8.3192,-2.15959 40.7131,-11.41767 9.1642,-2.62906 17.9903,-3.47412 a 3.6619156,3.6619156 0 0 1 4.0187,3.51168 q 0.094,2.76052 -1.2394,6.72291 -10.6477,31.49248 -17.671,53.18228 -0.9203,2.85441 -2.3474,4.54453 a 3.2675555,3.2675555 0 0 1 -4.9201,0.0563 z m 365.2527,-0.56337 a 0.99528989,0.99528989 0 0 0 -1.4459,-0.0563 q -12.6384,12.45051 -53.5767,53.25738 c -4.4506,4.45065 -10.2158,9.10784 -16.7697,7.60553 -6.9858,-1.61501 -9.5774,-8.13133 -6.6665,-14.21574 q 2.2159,-4.61966 7.6805,-10.10314 27.4362,-27.47375 53.4077,-53.25739 a 1.8966845,1.8966845 0 0 0 0.056,-2.64786 q -6.7605,-7.28626 -11.4364,-13.68992 a 3.7370319,3.2299974 49.9 0 1 0.057,-4.50697 q 1.3146,-1.31454 4.2442,-2.12204 26.1029,-7.21115 53.53907,-14.14062 3.6995,-0.93896 8.3191,-0.1878 a 1.2206385,1.2206385 0 0 1 0.9953,1.23942 q -0.2067,6.14075 -1.9343,11.13597 -9.0326,26.06533 -18.4786,52.90061 -1.0516,2.96709 -3.3239,4.09383 a 1.2018595,1.2206385 56.5 0 1 -1.4272,-0.28169 z M 1305.0466,463.01427 a 1.9154635,1.8966845 69.8 0 1 1.2208,-2.66661 q 24.9574,-6.66658 46.1777,-12.43174 c 3.4552,-0.93896 12.5819,-3.34268 15.9997,-1.91546 a 4.506973,4.4881941 20.2 0 1 2.6103,5.61493 l -19.2673,57.23855 a 2.7417419,2.7417419 0 0 1 -4.2628,1.29577 q -6.7041,-5.14547 -12.3943,-13.59605 a 1.4272082,1.4272082 0 0 0 -2.2159,-0.18778 q -16.2063,17.2955 -29.6333,30.51597 c -4.7512,4.69475 -12.9952,7.45527 -17.6336,1.6901 -5.2768,-6.53511 -2.6102,-12.93876 2.8357,-18.81661 q 2.7792,-3.00464 29.0136,-29.25776 a 2.7793,2.7793 0 0 0 -0.1125,-4.01872 c -5.2771,-4.78867 -10.1033,-8.84494 -12.3381,-13.46459 z m -314.17347,-7.7933 -12.4693,-12.48808 a 3.4929042,3.4741251 51.4 0 1 0.601,-5.42714 q 2.6478,-1.65256 8.075,-3.13611 33.06987,-9.01395 54.44037,-13.68992 3.2488,-0.71361 6.0282,1.89668 a 2.5727304,2.5915096 30.7 0 1 0.6759,2.70418 l -20.3377,60.29955 a 2.403719,2.3849399 10.1 0 1 -2.3474,1.63378 c -5.2205,-0.16901 -11.3988,-8.82616 -15.2109,-13.31435 a 2.1220332,2.1220332 0 0 0 -3.155,-0.0752 q -26.81637,28.35637 -55.47317,54.72216 c -4.7512,4.35674 -9.3708,7.47407 -15.1549,6.89192 -5.9716,-0.60094 -9.9715,-7.43651 -8.6007,-12.76977 q 1.1831,-4.63842 5.953,-9.57731 7.5679,-7.84965 56.9756,-56.5813 a 0.75116219,0.75116219 0 0 0 0,-1.08918 z m 185.16157,16.48802 q -46.5533,46.21525 -50.8913,50.29029 -8.9764,8.41303 -12.5632,10.30971 c -5.9905,3.19244 -13.7838,0.0939 -15.3049,-7.15482 q -1.4084,-6.76046 3.0609,-11.22988 26.7414,-26.76015 60.4686,-58.62821 a 2.1595913,2.1595913 0 0 0 0.2254,-2.91075 l -11.1548,-14.21574 a 3.079765,3.079765 0 0 1 1.7089,-4.90134 l 59.3418,-14.23452 a 3.5680204,3.5680204 0 0 1 4.3943,3.60557 q -0.074,2.14082 -0.8263,4.5821 -8.6571,28.6005 -16.6946,56.41228 a 4.2816245,4.3942987 11 0 1 -4.5445,3.15488 q -1.8967,-0.18779 -4.3003,-2.85441 -8.7135,-9.69001 -10.5351,-12.05615 a 1.5962196,1.5774406 48.8 0 0 -2.3849,-0.16901 z"
     style="fill:#1e3b59;fill-opacity:1;stroke-width:1.87791"
     inkscape:label="arrows" />
  <path
     id="outline"
     style="fill:#223d5a;fill-opacity:1;stroke-width:2.44661"
     d="M 1437.231,397.65536 871.30263,70.893016 748.46063,1.63887e-5 625.61863,70.893016 59.690031,397.65536 3.11127e-5,432.0841 v 864.3713 L 59.687631,1330.8817 632.54253,1661.725 l 115.9181,66.8219 115.9156,-66.8219 572.85477,-330.836 59.69,-34.4238 V 432.0841 Z m 0,866.41174 L 748.46063,1661.725 59.690031,1264.0671 V 468.55087 L 748.46063,70.893016 v 0 L 1437.231,468.55087 Z M 1051.9479,245.85359 c 0.9552,0.69321 1.4988,1.63783 1.1299,2.03753 -8.4379,9.0263 -11.2061,11.9722 -20.0072,20.5355 -40.13707,39.08544 -85.33997,70.88244 -135.60537,95.39537 -43.6801,21.30796 -89.0743,36.93972 -136.1848,46.89261 -24.1124,5.0954 -45.9324,9.23768 -65.4627,12.43012 -19.0231,3.09854 -43.7379,8.05783 -56.1133,11.0437 -16.5381,4.00619 -32.4327,8.61215 -47.6814,13.82023 -52.5561,17.96528 -98.845,45.85363 -138.8696,83.66216 -35.4923,33.52059 -66.3649,75.41725 -88.1111,118.90954 -11.0984,22.17807 -21.276,42.79528 -31.3229,64.40996 -11.4927,24.68819 -24.3077,47.26165 -38.442,67.71829 -16.2252,23.46131 -35.4349,45.24065 -57.6319,65.33425 -39.123,35.39225 -82.5101,64.79746 -130.1586,88.22122 -15.987299,7.86215 -32.761099,15.53025 -50.325699,23.00433 -0.3244,0.15286 -0.6973,-0.0984 -0.6968,-0.46947 l -0.036,38.98487 c 0,-0.79762 0.4837,-1.51565 1.2213,-1.81923 33.8775,-13.73373 67.210299,-29.91429 99.998399,-48.54312 35.6551,-20.25634 65.9645,-41.42717 90.9281,-63.51134 42.9664,-37.99629 78.0883,-82.51721 105.3681,-133.55869 17.1078,-31.99953 31.9619,-66.98415 51.9615,-102.5329 29.4643,-52.37479 70.441,-99.24833 119.5294,-131.56709 50.3467,-33.12625 109.9493,-48.59902 172.54,-59.35943 54.2713,-9.33319 106.5546,-20.03622 154.8355,-36.97492 92.1677,-32.3125 165.50877,-79.95965 230.94757,-154.17446 0.4447,-0.5046 2.012,-0.16172 3.6803,0.21875 z" />
  <text
     xml:space="preserve"
     style="font-weight:500;font-size:240px;font-family:Montserrat;-inkscape-font-specification:'Montserrat Medium';text-align:start;writing-mode:lr-tb;direction:ltr;text-anchor:start;fill:#223d5a;fill-opacity:1;stroke:#ff0000;stroke-width:1.13386;stroke-dashoffset:36.474"
     x="197.42039"
     y="1271.6436"
     id="text111"><tspan
       sodipodi:role="line"
       id="tspan111"
       x="197.42039"
       y="1271.6436"
       style="font-size:240px;stroke:none">ggquiver</tspan></text>
</svg>
